<svg width="1024" height="1024" viewBox="0 0 1024 1024" fill="none" xmlns="http://www.w3.org/2000/svg">
<rect width="1024" height="1024" rx="179.6" fill="url(#paint0_linear_17_18)"/>
<path d="M760.902 760.902C711.674 810.13 648.953 843.654 580.672 857.236C512.39 870.818 441.615 863.848 377.295 837.206C312.976 810.564 258.001 765.447 219.323 707.561C180.644 649.675 160 581.619 160 512C160 442.381 180.644 374.325 219.323 316.439C258.001 258.553 312.976 213.436 377.295 186.794C441.615 160.152 512.39 153.182 580.672 166.764C648.953 180.346 711.673 213.87 760.902 263.098L651.385 372.615C623.817 345.047 588.694 326.274 550.456 318.668C512.219 311.062 472.584 314.965 436.565 329.885C400.546 344.804 369.761 370.07 348.101 402.486C326.441 434.902 314.88 473.013 314.88 512C314.88 550.987 326.441 589.098 348.101 621.514C369.761 653.93 400.546 679.196 436.565 694.115C472.584 709.035 512.219 712.938 550.456 705.332C588.694 697.727 623.817 678.953 651.385 651.385L760.902 760.902Z" fill="white"/>
<circle cx="800" cy="512" r="64" fill="white"/>
<defs>
<linearGradient id="paint0_linear_17_18" x1="512" y1="0" x2="512" y2="1024" gradientUnits="userSpaceOnUse">
<stop stop-color="#3D64D6" stop-opacity="0.86"/>
<stop offset="1" stop-color="#3D64D6"/>
</linearGradient>
</defs>
</svg>
