<svg width="145" height="144" viewBox="0 0 145 144" fill="none" xmlns="http://www.w3.org/2000/svg">
<path fill-rule="evenodd" clip-rule="evenodd" d="M88.1923 15.7182C88.1923 20.0587 86.6577 23.7635 83.5886 26.8327C80.5193 29.9019 76.8145 31.4364 72.474 31.4364C68.1336 31.4364 64.4287 29.9019 61.3595 26.8327C58.2904 23.7635 56.7558 20.0587 56.7558 15.7182C56.7558 11.3778 58.2904 7.67293 61.3595 4.60369C64.4287 1.53456 68.1336 0 72.474 0C76.8145 0 80.5193 1.53456 83.5886 4.60369C86.6577 7.67293 88.1923 11.3778 88.1923 15.7182ZM116.136 15.7182C116.136 18.8535 115.027 21.5296 112.81 23.7466C110.593 25.9635 107.917 27.072 104.782 27.072C101.647 27.072 98.9706 25.9635 96.7536 23.7466C94.5367 21.5296 93.4282 18.8535 93.4282 15.7182C93.4282 12.583 94.5367 9.90685 96.7536 7.68988C98.9706 5.47291 101.647 4.36443 104.782 4.36443C107.917 4.36443 110.593 5.47291 112.81 7.68988C115.027 9.90685 116.136 12.583 116.136 15.7182ZM51.5164 15.7182C51.5164 18.853 50.4081 21.5287 48.1915 23.7453C45.9749 25.962 43.2991 27.0703 40.1644 27.0703C37.0296 27.0703 34.3539 25.962 32.1372 23.7453C29.9206 21.5287 28.8123 18.853 28.8123 15.7182C28.8123 12.5834 29.9206 9.90772 32.1372 7.6911C34.3539 5.47448 37.0296 4.36618 40.1644 4.36618C43.2992 4.36618 45.9749 5.47449 48.1915 7.6911C50.4081 9.90772 51.5164 12.5834 51.5164 15.7182ZM23.5746 15.7182C23.5746 20.3766 21.2454 22.7059 16.587 22.7059C11.9286 22.7059 9.59938 20.3766 9.59938 15.7182C9.59938 11.0598 11.9286 8.73059 16.587 8.73059C21.2454 8.73059 23.5746 11.0598 23.5746 15.7182ZM128.361 22.7041C123.704 22.7041 121.375 20.3755 121.375 15.7182C121.375 11.061 123.704 8.73234 128.361 8.73234C133.018 8.73234 135.347 11.061 135.347 15.7182C135.347 20.3755 133.018 22.7041 128.361 22.7041ZM136.389 47.3239C134.172 49.5409 131.496 50.6494 128.361 50.6494C125.226 50.6494 122.55 49.5409 120.333 47.3239C118.116 45.1069 117.007 42.4308 117.007 39.2956C117.007 36.1603 118.116 33.4842 120.333 31.2672C122.55 29.0503 125.226 27.9418 128.361 27.9418C131.496 27.9418 134.172 29.0503 136.389 31.2672C138.606 33.4842 139.715 36.1603 139.715 39.2956C139.715 42.4308 138.606 45.1069 136.389 47.3239ZM27.9391 39.2956C27.9391 42.4304 26.8308 45.1061 24.6142 47.3227C22.3975 49.5393 19.7218 50.6476 16.587 50.6476C13.4522 50.6476 10.7765 49.5393 8.55991 47.3227C6.34329 45.1061 5.23499 42.4304 5.23499 39.2956C5.23499 36.1608 6.3433 33.4851 8.55991 31.2684C10.7765 29.0518 13.4522 27.9435 16.587 27.9435C19.7218 27.9435 22.3975 29.0518 24.6142 31.2684C26.8308 33.4851 27.9391 36.1608 27.9391 39.2956ZM107.403 43.66C107.403 48.3184 105.074 50.6476 100.416 50.6476C95.7574 50.6476 93.4282 48.3184 93.4282 43.66C93.4282 39.0016 95.7574 36.6723 100.416 36.6723C105.074 36.6723 107.403 39.0016 107.403 43.66ZM51.5146 43.66C51.5146 48.3172 49.186 50.6459 44.5288 50.6459C39.8715 50.6459 37.5429 48.3172 37.5429 43.66C37.5429 39.0027 39.8715 36.6741 44.5288 36.6741C49.186 36.6741 51.5146 39.0027 51.5146 43.66ZM83.8261 48.0279C83.8261 51.1627 82.7178 53.8384 80.5012 56.055C78.2845 58.2716 75.6088 59.3799 72.474 59.3799C69.3392 59.3799 66.6635 58.2716 64.4469 56.055C62.2303 53.8384 61.122 51.1627 61.122 48.0279C61.122 44.8931 62.2303 42.2174 64.4469 40.0008C66.6635 37.7842 69.3392 36.6759 72.474 36.6759C75.6088 36.6759 78.2845 37.7842 80.5012 40.0008C82.7178 42.2174 83.8261 44.8931 83.8261 48.0279ZM32.3052 71.6052C32.3052 75.9457 30.7707 79.6505 27.7016 82.7198C24.6323 85.7889 20.9275 87.3235 16.587 87.3235C12.2466 87.3235 8.54173 85.7889 5.47249 82.7198C2.40336 79.6505 0.868805 75.9457 0.868805 71.6052C0.868805 67.2648 2.40336 63.5599 5.47249 60.4907C8.54173 57.4216 12.2466 55.887 16.587 55.887C20.9275 55.887 24.6323 57.4216 27.7016 60.4907C30.7707 63.5599 32.3052 67.2648 32.3052 71.6052ZM144.079 71.6052C144.079 75.9457 142.545 79.6505 139.476 82.7198C136.406 85.7889 132.701 87.3235 128.361 87.3235C124.021 87.3235 120.316 85.7889 117.247 82.7198C114.177 79.6505 112.643 75.9457 112.643 71.6052C112.643 67.2648 114.177 63.5599 117.247 60.4907C120.316 57.4216 124.021 55.887 128.361 55.887C132.701 55.887 136.406 57.4216 139.476 60.4907C142.545 63.5599 144.079 67.2648 144.079 71.6052ZM60.247 71.6052C60.247 74.74 59.1387 77.4157 56.9221 79.6324C54.7055 81.849 52.0297 82.9573 48.895 82.9573C45.7602 82.9573 43.0845 81.849 40.8678 79.6324C38.6512 77.4157 37.5429 74.74 37.5429 71.6052C37.5429 68.4704 38.6512 65.7947 40.8678 63.5781C43.0845 61.3615 45.7602 60.2532 48.895 60.2532C52.0298 60.2532 54.7055 61.3615 56.9221 63.5781C59.1387 65.7947 60.247 68.4704 60.247 71.6052ZM107.403 71.6052C107.403 74.74 106.295 77.4157 104.078 79.6324C101.862 81.849 99.1862 82.9573 96.0514 82.9573C92.9166 82.9573 90.2409 81.849 88.0243 79.6324C85.8076 77.4157 84.6993 74.74 84.6993 71.6052C84.6993 68.4704 85.8077 65.7947 88.0243 63.5781C90.2409 61.3615 92.9166 60.2532 96.0514 60.2532C99.1862 60.2532 101.862 61.3615 104.078 63.5781C106.295 65.7947 107.403 68.4704 107.403 71.6052ZM79.4599 71.6017C79.4599 76.259 77.1313 78.5876 72.474 78.5876C67.8168 78.5876 65.4882 76.259 65.4882 71.6017C65.4882 66.9445 67.8168 64.6159 72.474 64.6159C77.1313 64.6159 79.4599 66.9445 79.4599 71.6017ZM80.5006 103.208C78.2836 105.425 75.608 106.533 72.474 106.533C69.3406 106.533 66.6649 105.425 64.4467 103.208C62.2279 100.992 61.1185 98.3169 61.1185 95.1843C61.1185 92.048 62.2279 89.3711 64.4466 87.1535C66.6641 84.937 69.3399 83.8288 72.474 83.8288C75.6087 83.8288 78.2843 84.9372 80.5008 87.1539C82.7176 89.3711 83.8261 92.0479 83.8261 95.1843C83.8261 98.3171 82.7176 100.992 80.5006 103.208ZM107.403 99.547C107.403 104.205 105.074 106.535 100.416 106.535C95.7574 106.535 93.4282 104.205 93.4282 99.547C93.4282 94.8886 95.7574 92.5594 100.416 92.5594C105.074 92.5594 107.403 94.8886 107.403 99.547ZM51.5146 99.547C51.5146 104.204 49.186 106.533 44.5288 106.533C39.8715 106.533 37.5429 104.204 37.5429 99.547C37.5429 94.8897 39.8715 92.5611 44.5288 92.5611C49.186 92.5611 51.5146 94.8897 51.5146 99.547ZM139.715 103.915C139.715 107.05 138.606 109.726 136.389 111.943C134.172 114.16 131.496 115.269 128.361 115.269C125.226 115.269 122.55 114.16 120.333 111.943C118.116 109.726 117.007 107.05 117.007 103.915C117.007 100.78 118.116 98.1036 120.333 95.8866C122.55 93.6696 125.226 92.5611 128.361 92.5611C131.496 92.5611 134.172 93.6696 136.389 95.8866C138.606 98.1036 139.715 100.78 139.715 103.915ZM27.9391 103.915C27.9391 107.05 26.8308 109.725 24.6142 111.942C22.3975 114.159 19.7218 115.267 16.587 115.267C13.4522 115.267 10.7765 114.159 8.55991 111.942C6.34329 109.725 5.23499 107.05 5.23499 103.915C5.23499 100.78 6.3433 98.1044 8.55991 95.8878C10.7765 93.6712 13.4522 92.5629 16.587 92.5629C19.7218 92.5629 22.3975 93.6712 24.6142 95.8878C26.8308 98.1044 27.9391 100.78 27.9391 103.915ZM88.1923 127.491C88.1923 131.831 86.6577 135.536 83.5886 138.605C80.5193 141.674 76.8145 143.209 72.474 143.209C68.1336 143.209 64.4287 141.674 61.3595 138.605C58.2904 135.536 56.7558 131.831 56.7558 127.491C56.7558 123.15 58.2904 119.445 61.3595 116.376C64.4287 113.307 68.1336 111.772 72.474 111.772C76.8145 111.772 80.5193 113.307 83.5886 116.376C86.6577 119.445 88.1923 123.15 88.1923 127.491ZM116.136 127.491C116.136 130.626 115.027 133.302 112.81 135.519C110.593 137.736 107.917 138.844 104.782 138.844C101.647 138.844 98.9706 137.736 96.7536 135.519C94.5367 133.302 93.4282 130.626 93.4282 127.491C93.4282 124.355 94.5367 121.679 96.7536 119.462C98.9706 117.245 101.647 116.137 104.782 116.137C107.917 116.137 110.593 117.245 112.81 119.462C115.027 121.679 116.136 124.355 116.136 127.491ZM51.5164 127.491C51.5164 130.625 50.4081 133.301 48.1915 135.518C45.9749 137.734 43.2991 138.843 40.1644 138.843C37.0296 138.843 34.3539 137.734 32.1372 135.518C29.9206 133.301 28.8123 130.625 28.8123 127.491C28.8123 124.356 29.9206 121.68 32.1372 119.463C34.3539 117.247 37.0296 116.138 40.1644 116.138C43.2992 116.138 45.9749 117.247 48.1915 119.463C50.4081 121.68 51.5164 124.356 51.5164 127.491ZM23.5746 127.491C23.5746 132.149 21.2454 134.478 16.587 134.478C11.9286 134.478 9.59938 132.149 9.59938 127.491C9.59938 122.832 11.9286 120.503 16.587 120.503C21.2454 120.503 23.5746 122.832 23.5746 127.491ZM135.347 127.491C135.347 132.148 133.018 134.476 128.361 134.476C123.704 134.476 121.375 132.148 121.375 127.491C121.375 122.833 123.704 120.505 128.361 120.505C133.018 120.505 135.347 122.833 135.347 127.491Z" fill="#EB4C60"/>
</svg>
