<svg width="357" height="66" viewBox="0 0 357 66" fill="none" xmlns="http://www.w3.org/2000/svg">
<path d="M23.1801 52.4402C23.3068 52.4402 23.3068 52.4402 23.3068 52.4402C29.5135 52.4402 35.4668 49.9069 39.9002 45.4735C41.4202 44.0802 41.4202 41.5468 39.9002 40.1535C38.3802 38.6335 35.9735 38.6335 34.4535 40.1535C28.2468 46.2335 18.2401 46.3602 12.1601 40.1535C6.08003 34.0734 6.20669 24.0667 12.2867 17.9867C18.4934 11.78 28.5001 11.78 34.5801 17.86C36.1002 19.3801 38.5068 19.3801 40.0268 17.86C41.4202 16.34 41.4202 13.9334 40.0268 12.4134C30.9068 3.41998 16.0867 3.41999 6.84003 12.54C-2.28001 21.6601 -2.28001 36.4801 6.84003 45.6002C11.1467 50.0335 16.9734 52.4402 23.1801 52.4402Z" fill="#EB4C60"/>
<path d="M69.5403 52.5669C82.4603 52.5669 92.847 42.0535 92.847 29.1334C92.847 16.2134 82.4603 5.70001 69.5403 5.70001C56.7469 5.70001 46.2335 16.2134 46.2335 29.1334C46.2335 42.0535 56.7469 52.5669 69.5403 52.5669ZM69.5403 13.3C78.1536 13.3 85.247 20.3934 85.247 29.1334C85.247 37.8735 78.1536 44.9668 69.5403 44.9668C60.9269 44.9668 53.9602 37.8735 53.9602 29.1334C53.9602 20.3934 60.9269 13.3 69.5403 13.3Z" fill="#EB4C60"/>
<path d="M121.22 52.5669C134.141 52.5669 144.527 42.1802 144.527 29.2601V29.0068C144.527 16.0867 134.141 5.70001 121.22 5.70001H101.714C99.6871 5.70001 97.9137 7.34669 97.9137 9.50003C97.9137 11.6534 99.6871 13.3 101.714 13.3H121.22C129.834 13.3 136.927 20.3934 136.927 29.0067V29.2601C136.927 37.8735 129.834 44.9668 121.22 44.9668H101.714C99.6871 44.9668 97.9137 46.6135 97.9137 48.7668C97.9137 50.9202 99.6871 52.5668 101.714 52.5668L121.22 52.5669Z" fill="#EB4C60"/>
<path d="M153.394 65.4869C155.547 65.4869 157.194 63.7136 157.194 61.5602V3.79999C157.194 1.64665 155.547 0 153.394 0C151.241 0 149.594 1.64665 149.594 3.79999V61.5602C149.594 63.7136 151.241 65.4869 153.394 65.4869Z" fill="#EB4C60"/>
<path d="M196.841 52.5669C197.221 52.5669 197.601 52.5669 197.981 52.3135C199.627 51.8069 200.641 50.4135 200.641 48.7669V9.50004C200.641 7.3467 198.867 5.70002 196.841 5.70002C194.687 5.70002 192.914 7.3467 192.914 9.50004V37.6202L169.101 7.09336C168.087 5.82669 166.314 5.32003 164.794 5.8267C163.274 6.46004 162.261 7.85336 162.261 9.50004V48.7669C162.261 50.9202 163.907 52.5669 166.061 52.5669C168.214 52.5669 169.861 50.9202 169.861 48.7669V20.6467L193.801 51.1735C194.561 52.0602 195.574 52.5669 196.841 52.5669Z" fill="#EB4C60"/>
<path d="M212.041 52.5669C215.588 52.5669 218.374 49.7802 218.374 46.2335C218.374 42.6868 215.588 39.9001 212.041 39.9001C208.494 39.9001 205.707 42.6868 205.707 46.2335C205.707 49.7802 208.494 52.5669 212.041 52.5669Z" fill="#EB4C60"/>
<path d="M242.568 52.5669C244.721 52.5669 246.368 50.9202 246.368 48.7668V13.3H258.021C260.048 13.3 261.821 11.6534 261.821 9.50003C261.821 7.34669 260.048 5.70004 258.021 5.70004H227.241C225.088 5.70004 223.441 7.34669 223.441 9.50003C223.441 11.6534 225.088 13.3 227.241 13.3H238.768V48.7668C238.768 50.9202 240.414 52.5669 242.568 52.5669Z" fill="#EB4C60"/>
<path d="M290.194 52.5669C303.115 52.5669 313.501 42.0535 313.501 29.1334C313.501 16.2134 303.115 5.70001 290.194 5.70001C277.401 5.70001 266.888 16.2134 266.888 29.1334C266.888 42.0535 277.401 52.5669 290.194 52.5669ZM290.194 13.3C298.808 13.3 305.901 20.3934 305.901 29.1334C305.901 37.8735 298.808 44.9668 290.194 44.9668C281.581 44.9668 274.614 37.8735 274.614 29.1334C274.614 20.3934 281.581 13.3 290.194 13.3Z" fill="#EB4C60"/>
<path d="M322.368 52.5669C324.521 52.5669 326.168 50.9202 326.168 48.7668V32.9334H343.268C350.741 32.9334 356.948 26.8534 356.948 19.2534C356.948 11.78 350.741 5.70001 343.268 5.70001H322.368C320.215 5.70001 318.568 7.34669 318.568 9.50003C318.568 11.6534 320.215 13.3 322.368 13.3H343.268C346.561 13.3 349.221 15.96 349.221 19.2534C349.221 22.5467 346.561 25.3334 343.268 25.3334H322.368C320.215 25.3334 318.568 26.9801 318.568 29.1334V48.7668C318.568 50.9202 320.215 52.5669 322.368 52.5669Z" fill="#EB4C60"/>
</svg>
